<svg width="16" height="16" viewBox="0 0 16 16" fill="none" xmlns="http://www.w3.org/2000/svg">
<g clip-path="url(#clip0_102_60)">
<path d="M9.49262 9.21507C9.4418 9.34209 9.34115 9.44274 9.21412 9.49356L5.78244 10.8665C5.37427 11.0298 4.96919 10.6248 5.13249 10.2166L6.50545 6.7849C6.55627 6.65787 6.65692 6.55722 6.78395 6.5064L10.2156 5.13344C10.6238 4.97013 11.0289 5.37522 10.8656 5.78339L9.49262 9.21507Z" stroke="#405175" stroke-linecap="round" stroke-linejoin="round"/>
<path d="M8.00016 14.6667C11.6821 14.6667 14.6668 11.6819 14.6668 8.00001C14.6668 4.31811 11.6821 1.33334 8.00016 1.33334C4.31826 1.33334 1.3335 4.31811 1.3335 8.00001C1.3335 11.6819 4.31826 14.6667 8.00016 14.6667Z" stroke="#405175" stroke-linecap="round" stroke-linejoin="round"/>
</g>
<defs>
<clipPath id="clip0_102_60">
<rect width="16" height="16" fill="white"/>
</clipPath>
</defs>
</svg>
