<svg width="16" height="16" viewBox="0 0 16 16" fill="none" xmlns="http://www.w3.org/2000/svg">
<path d="M0.666656 12C0.666656 10.5 2.66666 10.5 3.66666 9.5C4.16666 9 2.66666 9 2.66666 6.5C2.66666 4.8335 3.33316 4 4.66666 4C6.00016 4 6.66666 4.8335 6.66666 6.5C6.66666 9 5.16666 9 5.66666 9.5C5.66666 9.5 7.25279 9.97414 7.99999 10.6667C8.47736 11.1091 8.99999 12 8.99999 12M8.52786 10.4844C8.85603 10.3655 9.12498 10.2555 9.33473 10.1545C9.70184 9.9777 10.056 9.7773 10.3333 9.5C10.8333 9 9.33332 9 9.33332 6.5C9.33332 4.8335 9.99982 4 11.3333 4C12.6668 4 13.3333 4.8335 13.3333 6.5C13.3333 9 11.8333 9 12.3333 9.5C13.3333 10.5 15.3333 10.5 15.3333 12" stroke="#405175" stroke-linecap="round" stroke-linejoin="round"/>
<path d="M8 10.6666C8.24418 10.5842 8.42014 10.5235 8.52787 10.4844" stroke="#405175" stroke-width="0.7" stroke-linecap="round" stroke-linejoin="round"/>
</svg>
