<svg width="16" height="16" viewBox="0 0 16 16" fill="none" xmlns="http://www.w3.org/2000/svg">
<rect width="16" height="16" rx="4" fill="#2D70FD"/>
<g clip-path="url(#clip0_2_500)">
<path d="M2.95844 10.75C2.95844 9.71875 4.33343 9.71875 5.02093 9.03125C5.36468 8.6875 4.33343 8.6875 4.33343 6.96875C4.33343 5.82303 4.79165 5.25 5.70843 5.25C6.62522 5.25 7.08343 5.82303 7.08343 6.96875C7.08343 8.6875 6.05218 8.6875 6.39593 9.03125C6.39593 9.03125 7.4864 9.35722 8.0001 9.83333C8.32829 10.1375 8.6876 10.75 8.6876 10.75M8.36301 9.70806C8.58863 9.62629 8.77353 9.55068 8.91773 9.48123C9.17012 9.35967 9.41363 9.22189 9.60427 9.03125C9.94802 8.6875 8.91677 8.6875 8.91677 6.96875C8.91677 5.82303 9.37499 5.25 10.2918 5.25C11.2085 5.25 11.6668 5.82303 11.6668 6.96875C11.6668 8.6875 10.6355 8.6875 10.9793 9.03125C11.6668 9.71875 13.0418 9.71875 13.0418 10.75" stroke="white" stroke-width="0.7" stroke-linecap="round" stroke-linejoin="round"/>
<path d="M8 9.83332C8.16788 9.77664 8.28885 9.73488 8.36291 9.70804" stroke="white" stroke-width="0.7" stroke-linecap="round" stroke-linejoin="round"/>
</g>
<defs>
<clipPath id="clip0_2_500">
<rect width="11" height="11" fill="white" transform="translate(2.5 2.5)"/>
</clipPath>
</defs>
</svg>
